<svg id="圖層_1" data-name="圖層 1" xmlns="http://www.w3.org/2000/svg" viewBox="0 0 454.322 363.465"><defs><style>.cls-1{fill:#398e7b;}</style></defs><title>計畫通logo</title><polygon class="cls-1" points="0 0 0 17.865 23.75 363.465 87.148 339.079 86.822 303.108 56.488 312.087 39.919 63.656 191.306 155.133 99.08 168.541 103.698 193.983 285.773 171.711 0 0"/><polygon class="cls-1" points="50.233 79.808 67.455 301.28 79.948 297.331 64.241 98.906 147.71 147.561 96.228 152.434 103.698 193.983 111.002 193.087 107.087 164.157 176.004 153.334 50.233 79.808"/><path class="cls-1" d="M146.845,231.89h54.421v9.774H146.845ZM158.55,317.8v4.224h-9.775V285.1a2.734,2.734,0,0,1,3.017-3.016h45.975c2.171,0,3.257,1.086,3.257,3.016v29.322c0,2.292-1.086,3.378-3.379,3.378Zm-6.033-101.48h43.56V226.1h-43.56Zm0,32.1H195.6V258.2H152.517Zm0,16.41H195.6v9.774H152.517Zm38.733,28.115c0-1.086-.6-1.568-1.689-1.568H160.118c-1.086,0-1.568.482-1.568,1.568v15.566H189.2a1.846,1.846,0,0,0,2.051-2.051Zm33.184-37.889H202.473V244.8h21.961V213.066H234.69V244.8h21.72v10.257H234.69v68.9H224.434Z" transform="translate(-44.145 -6.237)"/><path class="cls-1" d="M317.106,264.108v-3.861H276.561v-7.361h40.545V248.9H278.493v-7.36h38.613v-3.62H268V229.96h49.111v-3.62H278.493v-7.482h38.613v-5.792h9.774v5.792h37.045c1.809,0,2.775.845,2.775,2.654v8.448h9.9v7.964h-9.9v8.326c0,1.809-.966,2.654-2.775,2.654H326.88v3.982h41.63v7.361H326.88v3.861h48.266v8.446h-105.7v-8.446ZM268,313.7H376.6v8.326H268Zm96.774-5.43c0,.845-.483,1.206-1.327,1.206H281.751c-.845,0-1.207-.361-1.207-1.206v-30.89c0-.845.362-1.207,1.207-1.207h81.691c.844,0,1.327.362,1.327,1.207Zm-74.934-19.186h27.271v-5.068H290.2c-.362,0-.482.12-.362.362Zm27.271,7.481H289.835v4.586l.362.482h26.909Zm9.774-70.227v3.62h30.528c0-3.259,0-3.62-.845-3.62Zm0,11.584v3.62h29.683c.845,0,.845-.363.845-3.62Zm0,51.162h28.6V284.38l-.482-.362H326.88Zm28.6,7.481h-28.6v5.068H355l.482-.482Z" transform="translate(-44.145 -6.237)"/><path class="cls-1" d="M386.731,315.029c12.187-4.826,14.842-8.446,16.289-15.928V278.226c0-.966-.361-1.448-1.206-1.448H390.23V266.521h20.513c1.811,0,2.534.845,2.534,2.534v28.478a17.9,17.9,0,0,0,4.1,7c5.189,7.481,14.48,8.206,34.994,8.206,11.7,0,27.149-.483,46.094-1.448l-2.413,11.584-57.076-.241c-14.359-.6-24.375-5.189-29.563-13.515-2.534,5.912-10.618,12.79-17.737,15.2Zm20.031-55.748c-7.6-5.309-14-9.05-19.066-11.222l5.069-9.171a105.763,105.763,0,0,1,19.668,11.7Zm2.654-24.013c-7.6-5.792-14.238-10.014-19.548-12.428l5.43-8.929a114.816,114.816,0,0,1,19.91,12.79ZM453.1,287.4H431.5v17.98h-9.773V243.112c0-1.568.723-2.293,2.171-2.293h20.031l-10.86-4.223,3.862-8.326,14.6,5.792a54.5,54.5,0,0,0,23.047-8.808v-.845H422.931v-9.292h63.953l4.344,5.793c-11.222,13.514-21.237,16.531-28,18.582l.966.482-.483.845h28.115a2,2,0,0,1,2.293,2.293V297.05c0,7.722-5.31,11.1-13.273,11.1a65.835,65.835,0,0,1-12.308-1.568V295.722c4.826,1.57,8.446,2.414,10.739,2.414a4.987,4.987,0,0,0,5.069-4.948V287.4H462.389v19.066H453.1Zm0-27.753V249.628H432.223a.64.64,0,0,0-.725.724v9.291Zm0,18.945V268.573H431.5v10.015Zm9.291-28.96v10.015h21.962v-9.291c0-.483-.243-.724-.845-.724Zm0,18.945v10.015h21.962V268.573Z" transform="translate(-44.145 -6.237)"/></svg>