<svg xmlns="http://www.w3.org/2000/svg" viewBox="0 0 284.767 314.37"><defs><style>.cls-1{fill:#3b937f;}</style></defs><title>計畫通logo</title><g id="圖層_4" data-name="圖層 4"><rect class="cls-1" x="3.389" y="280.68" width="31.254" height="5.702"/><rect class="cls-1" x="51.772" y="252.236" width="17.275" height="11.846"/><polygon class="cls-1" points="22.662 248.388 10.347 248.388 13.137 256.108 0 256.108 0 261.3 39.043 261.3 39.043 256.108 25.486 256.108 22.662 248.388"/><path class="cls-1" d="M292.178,386.791h30.976v-21.4H292.178Zm8.248-15.087H315v9.166H300.426Z" transform="translate(-288.33 -72.421)"/><path class="cls-1" d="M462.025,353.182H427.7v-3.156h32.842l-5.845-5.122h-27V342.85h24.61v-7.136h10.232v-4.4H452.305v-7.061H427.7l.006-3.448h-8.217v3.448h-23.83v4.055h23.83v3.006H386.559v4.4h32.925v3h-23.83v4.133h23.83V344.9H391.547l-5.2,5.122h33.132v3.156H385.026l-4.071,4.208h85.074ZM427.7,328.311H444v3.006H427.7Zm0,7.4H444v3H427.7Z" transform="translate(-288.33 -72.421)"/><path class="cls-1" d="M457.181,378.476V361.789H390.107v16.687Zm-29.2-6.7h13.044v-3.981H427.98v-3.08h21.056v3.08h-.011v3.981h.011v3.083H427.98Zm-29.6.325v-7.386h21.579v3.08H406.383v3.981h13.578v3.083H398.382Z" transform="translate(-288.33 -72.421)"/><polygon class="cls-1" points="98.664 309.461 89.922 314.306 180.973 314.306 172.787 309.461 98.664 309.461"/><path class="cls-1" d="M500.54,333.317c-1.682-4.287-2.891-6.953-4.532-11.405h-13.6c1.82,3.029,4.146,7.693,7.844,11.283Z" transform="translate(-288.33 -72.421)"/><path class="cls-1" d="M534.849,332.558q-4.394-1.654-10.552-3.382l-6.541,3.907a120.768,120.768,0,0,1,12.413,4.019H510.977v39.445h8.4V365.389h13.414V376.4h8.4V365.389H554.61V368.7q0,1.729-3.915,1.728-2.1,0-4.484-.075l2.531,6.273c5.726.2,10.985.093,12.906-.971s1.461-38.549,1.461-38.549H544.538l-1.29-.788q8.068-3.421,17.809-8.3v-3.489l-3.026-1.791H509.64l6.2,5.28h30.135Q540.761,330.415,534.849,332.558Zm-2.057,27.16H519.378v-6h13.414Zm0-10H519.378V342.85h13.414Zm21.818,10H541.2v-6H554.61Zm0-16.868v6.869H541.2V342.85Z" transform="translate(-288.33 -72.421)"/><path class="cls-1" d="M485.179,353.132h11.075c3.477-3.59,6.473-6.915,8.946-9.944v-6.574H480.468v6.574h14.278C492.409,345.926,489.208,349.247,485.179,353.132Z" transform="translate(-288.33 -72.421)"/><path class="cls-1" d="M505.438,355.848H482.33V359.4h13.9c-2.134,7.762-14.052,27.323-14.052,27.323H495.82s7.494-14.885,9.714-22.374S505.438,355.848,505.438,355.848Z" transform="translate(-288.33 -72.421)"/><polygon class="cls-1" points="22.582 248.175 10.268 248.175 10.347 248.388 22.662 248.388 22.582 248.175"/><polygon class="cls-1" points="278.872 308.12 216.87 308.12 216.87 314.37 284.767 314.37 278.872 308.12"/><polygon class="cls-1" points="66.642 269.436 54.18 269.436 40.966 269.451 40.966 275.28 51.407 275.28 51.407 314.37 69.994 314.37 69.994 275.28 81.931 275.28 81.931 269.451 66.642 269.436"/><polygon class="cls-1" points="3.389 268.263 3.389 273.64 34.643 273.64 34.643 269.436 34.643 268.263 3.389 268.263"/><path class="cls-1" d="M479.111,277.514a98.845,98.845,0,0,1-29.749,12.792,26.5,26.5,0,0,0,3.429-9.818,26.3,26.3,0,0,0-.163-8.362,76.182,76.182,0,0,0,9.863-4.766,83.566,83.566,0,1,0-75.039-.047,76.044,76.044,0,0,0,12.737,5.853,26.564,26.564,0,0,0,3.911,17.923,100.105,100.105,0,0,1-35.205-14.9l-30.338,25.693q2.759,2.361,5.642,4.571H502.1c2-1.522,3.941-3.111,5.845-4.745Zm-54.821,7.223v7.49a15.5,15.5,0,0,1-8.819-4.394,15.66,15.66,0,0,1-2.853-3.934,15.5,15.5,0,0,1-1.713-7.085c0-.251.027-.5.037-.741a75.32,75.32,0,0,0,13.348,1.333Zm0-8.551a73.19,73.19,0,0,1-13.248-1.335A15.525,15.525,0,0,1,424.29,261.4Zm16.3,7.23a15.507,15.507,0,0,1-12.647,8.91v-14.98a74.257,74.257,0,0,0,14.059-1.895c.04.45.069.9.069,1.363A15.442,15.442,0,0,1,440.594,283.416Zm-12.647-7.29V261.307a15.53,15.53,0,0,1,13.9,12.931A73.583,73.583,0,0,1,427.947,276.126Zm9.175-23.648h27.3l-7.747-9.8H431.479v-7.265h15.794V225.307H431.479v-2.362a43.491,43.491,0,0,0,40.241-40.053h13.221a.638.638,0,0,0,.076.015.824.824,0,0,0,.661-.564.761.761,0,0,0,.024-.121.784.784,0,0,0-.024-.121V175a.654.654,0,0,0,.024-.12.639.639,0,0,0-.024-.117.676.676,0,0,0-.6-.556c-.018,0-.035-.009-.055-.009h-.009c-.02,0-.035.009-.053.009H471.525a43.5,43.5,0,0,0-40.046-38.072V124.559a.9.9,0,0,0-.9-.9h-11.6a.9.9,0,0,0-.9.907v12.664a43.455,43.455,0,0,0-29.84,25.4c-.043.1-.083.2-.125.305a.957.957,0,0,0-.038.184.893.893,0,0,0,.738.871h17.425a23.211,23.211,0,0,1,11.84-8.205V174.2H373.44a.687.687,0,0,0-.68.686v7.32a.685.685,0,0,0,.666.683l.017,0,.019,0h44.606v18.416a23.783,23.783,0,0,1-9.867-5.933c-.336-.336-.644-.7-.961-1.056H388.682c-.007,0-.014,0-.022,0l-.016,0a.892.892,0,0,0-.725.41c-.044.1-.083.2-.126.308a.825.825,0,0,0-.037.183,1.019,1.019,0,0,0,.021.127c.049.122.1.245.147.368a43.487,43.487,0,0,0,30.144,26.128v3.464H401.556v10.105h16.512v7.265H391.943l-6.306,9.8h30.218a26.556,26.556,0,0,0-15.467,19.465,76.192,76.192,0,0,1-29.575-19.278,83.192,83.192,0,0,1,0-113.726,74.164,74.164,0,0,1,108.4,0,83.192,83.192,0,0,1,0,113.726,76.431,76.431,0,0,1-26.832,18.245,26.534,26.534,0,0,0-15.257-18.432Zm11.289-69.586a23.689,23.689,0,0,1-16.932,18.544V182.892ZM431.479,174.2V155.658A23.688,23.688,0,0,1,448.411,174.2Z" transform="translate(-288.33 -72.421)"/><path class="cls-1" d="M332.3,231.823a100.658,100.658,0,1,1,176.869,16.044l25.893,21.725a130.34,130.34,0,1,0-223.111,1.174l28.269-23.945A100.336,100.336,0,0,1,332.3,231.823Z" transform="translate(-288.33 -72.421)"/></g></svg>